<svg height="100%" style="font-family: sans-serif; font-size: 11px;" width="100%" xmlns="http://www.w3.org/2000/svg" xmlns:xlink="http://www.w3.org/1999/xlink">
        <g transform="translate(0,24)">
      <text id="chordName" style="font-size: 16px;" text-anchor="middle" x="42" y="12">F7</text>
      <text id="startingFret" style="visibility: hidden;" x="0" y="40">1</text>
      <g id="svgChord" transform="translate(9,24)">
        <g id="strings" transform="translate(0,2)">
          <rect fill="black" height="80" width="2" x="0"/>
          <rect fill="black" height="80" width="2" x="20"/>
          <rect fill="black" height="80" width="2" x="40"/>
          <rect fill="black" height="80" width="2" x="60"/>
        </g>
        <g id="frets" transform="translate(0,2)">
          <rect fill="black" height="2" width="62" y="0"/>
          <rect fill="black" height="2" width="62" y="20"/>
          <rect fill="black" height="2" width="62" y="40"/>
          <rect fill="black" height="2" width="62" y="60"/>
          <rect fill="black" height="2" width="62" y="80"/>
        </g>
        <g id="closedStrings" transform="translate(1,12)">
          <g id="closedString0" style="visibility: visible;" transform="translate(0,20)">
            <circle r="6"/>
            <text fill="white" id="finger0" text-anchor="middle" y="4">2</text>
          </g>
          <g id="closedString1" style="visibility: visible;" transform="translate(20,40)">
            <circle r="6"/>
            <text fill="white" id="finger1" text-anchor="middle" y="4">3</text>
          </g>
          <g id="closedString2" style="visibility: visible;" transform="translate(40,0)">
            <circle r="6"/>
            <text fill="white" id="finger2" text-anchor="middle" y="4">1</text>
          </g>
          <g id="closedString3" style="visibility: visible;" transform="translate(60,40)">
            <circle r="6"/>
            <text fill="white" id="finger3" text-anchor="middle" y="4">4</text>
          </g>
        </g>
        <g id="openStrings" transform="translate(1,-5)">
          <circle cx="0" fill="none" id="openString0" r="4" stroke="black" stroke-width="1" style="visibility: hidden;"/>
          <circle cx="20" fill="none" id="openString1" r="4" stroke="black" stroke-width="1" style="visibility: hidden;"/>
          <circle cx="40" fill="none" id="openString2" r="4" stroke="black" stroke-width="1" style="visibility: hidden;"/>
          <circle cx="60" fill="none" id="openString3" r="4" stroke="black" stroke-width="1" style="visibility: hidden;"/>
        </g>
        <g id="subText" transform="translate(1,98)">
          <text id="subText0" text-anchor="middle" x="0"/>
          <text id="subText1" text-anchor="middle" x="20"/>
          <text id="subText2" text-anchor="middle" x="40">R</text>
          <text id="subText3" text-anchor="middle" x="60"/>
        </g>
      </g>
        </g><g transform="translate(80,24)">
      <text id="chordName" style="font-size: 16px;" text-anchor="middle" x="42" y="12">C7</text>
      <text id="startingFret" style="visibility: hidden;" x="0" y="40">1</text>
      <g id="svgChord" transform="translate(9,24)">
        <g id="strings" transform="translate(0,2)">
          <rect fill="black" height="80" width="2" x="0"/>
          <rect fill="black" height="80" width="2" x="20"/>
          <rect fill="black" height="80" width="2" x="40"/>
          <rect fill="black" height="80" width="2" x="60"/>
        </g>
        <g id="frets" transform="translate(0,2)">
          <rect fill="black" height="2" width="62" y="0"/>
          <rect fill="black" height="2" width="62" y="20"/>
          <rect fill="black" height="2" width="62" y="40"/>
          <rect fill="black" height="2" width="62" y="60"/>
          <rect fill="black" height="2" width="62" y="80"/>
        </g>
        <g id="closedStrings" transform="translate(1,12)">
          <g id="closedString0" style="visibility: hidden;" transform="translate(0,-20)">
            <circle r="6"/>
            <text fill="white" id="finger0" text-anchor="middle" y="4"/>
          </g>
          <g id="closedString1" style="visibility: hidden;" transform="translate(20,-20)">
            <circle r="6"/>
            <text fill="white" id="finger1" text-anchor="middle" y="4"/>
          </g>
          <g id="closedString2" style="visibility: hidden;" transform="translate(40,-20)">
            <circle r="6"/>
            <text fill="white" id="finger2" text-anchor="middle" y="4"/>
          </g>
          <g id="closedString3" style="visibility: visible;" transform="translate(60,0)">
            <circle r="6"/>
            <text fill="white" id="finger3" text-anchor="middle" y="4">1</text>
          </g>
        </g>
        <g id="openStrings" transform="translate(1,-5)">
          <circle cx="0" fill="none" id="openString0" r="4" stroke="black" stroke-width="1" style="visibility: visible;"/>
          <circle cx="20" fill="none" id="openString1" r="4" stroke="black" stroke-width="1" style="visibility: visible;"/>
          <circle cx="40" fill="none" id="openString2" r="4" stroke="black" stroke-width="1" style="visibility: visible;"/>
          <circle cx="60" fill="none" id="openString3" r="4" stroke="black" stroke-width="1" style="visibility: hidden;"/>
        </g>
        <g id="subText" transform="translate(1,98)">
          <text id="subText0" text-anchor="middle" x="0"/>
          <text id="subText1" text-anchor="middle" x="20">R</text>
          <text id="subText2" text-anchor="middle" x="40"/>
          <text id="subText3" text-anchor="middle" x="60"/>
        </g>
      </g>
        </g><g transform="translate(160,24)">
      <text id="chordName" style="font-size: 16px;" text-anchor="middle" x="42" y="12">G7</text>
      <text id="startingFret" style="visibility: hidden;" x="0" y="40">1</text>
      <g id="svgChord" transform="translate(9,24)">
        <g id="strings" transform="translate(0,2)">
          <rect fill="black" height="80" width="2" x="0"/>
          <rect fill="black" height="80" width="2" x="20"/>
          <rect fill="black" height="80" width="2" x="40"/>
          <rect fill="black" height="80" width="2" x="60"/>
        </g>
        <g id="frets" transform="translate(0,2)">
          <rect fill="black" height="2" width="62" y="0"/>
          <rect fill="black" height="2" width="62" y="20"/>
          <rect fill="black" height="2" width="62" y="40"/>
          <rect fill="black" height="2" width="62" y="60"/>
          <rect fill="black" height="2" width="62" y="80"/>
        </g>
        <g id="closedStrings" transform="translate(1,12)">
          <g id="closedString0" style="visibility: hidden;" transform="translate(0,-20)">
            <circle r="6"/>
            <text fill="white" id="finger0" text-anchor="middle" y="4"/>
          </g>
          <g id="closedString1" style="visibility: visible;" transform="translate(20,20)">
            <circle r="6"/>
            <text fill="white" id="finger1" text-anchor="middle" y="4">2</text>
          </g>
          <g id="closedString2" style="visibility: visible;" transform="translate(40,0)">
            <circle r="6"/>
            <text fill="white" id="finger2" text-anchor="middle" y="4">1</text>
          </g>
          <g id="closedString3" style="visibility: visible;" transform="translate(60,20)">
            <circle r="6"/>
            <text fill="white" id="finger3" text-anchor="middle" y="4">3</text>
          </g>
        </g>
        <g id="openStrings" transform="translate(1,-5)">
          <circle cx="0" fill="none" id="openString0" r="4" stroke="black" stroke-width="1" style="visibility: visible;"/>
          <circle cx="20" fill="none" id="openString1" r="4" stroke="black" stroke-width="1" style="visibility: hidden;"/>
          <circle cx="40" fill="none" id="openString2" r="4" stroke="black" stroke-width="1" style="visibility: hidden;"/>
          <circle cx="60" fill="none" id="openString3" r="4" stroke="black" stroke-width="1" style="visibility: hidden;"/>
        </g>
        <g id="subText" transform="translate(1,98)">
          <text id="subText0" text-anchor="middle" x="0">R</text>
          <text id="subText1" text-anchor="middle" x="20"/>
          <text id="subText2" text-anchor="middle" x="40"/>
          <text id="subText3" text-anchor="middle" x="60"/>
        </g>
      </g>
        </g><g transform="translate(240,24)">
      <text id="chordName" style="font-size: 16px;" text-anchor="middle" x="42" y="12">A7</text>
      <text id="startingFret" style="visibility: hidden;" x="0" y="40">1</text>
      <g id="svgChord" transform="translate(9,24)">
        <g id="strings" transform="translate(0,2)">
          <rect fill="black" height="80" width="2" x="0"/>
          <rect fill="black" height="80" width="2" x="20"/>
          <rect fill="black" height="80" width="2" x="40"/>
          <rect fill="black" height="80" width="2" x="60"/>
        </g>
        <g id="frets" transform="translate(0,2)">
          <rect fill="black" height="2" width="62" y="0"/>
          <rect fill="black" height="2" width="62" y="20"/>
          <rect fill="black" height="2" width="62" y="40"/>
          <rect fill="black" height="2" width="62" y="60"/>
          <rect fill="black" height="2" width="62" y="80"/>
        </g>
        <g id="closedStrings" transform="translate(1,12)">
          <g id="closedString0" style="visibility: hidden;" transform="translate(0,-20)">
            <circle r="6"/>
            <text fill="white" id="finger0" text-anchor="middle" y="4"/>
          </g>
          <g id="closedString1" style="visibility: visible;" transform="translate(20,0)">
            <circle r="6"/>
            <text fill="white" id="finger1" text-anchor="middle" y="4">1</text>
          </g>
          <g id="closedString2" style="visibility: hidden;" transform="translate(40,-20)">
            <circle r="6"/>
            <text fill="white" id="finger2" text-anchor="middle" y="4"/>
          </g>
          <g id="closedString3" style="visibility: hidden;" transform="translate(60,-20)">
            <circle r="6"/>
            <text fill="white" id="finger3" text-anchor="middle" y="4"/>
          </g>
        </g>
        <g id="openStrings" transform="translate(1,-5)">
          <circle cx="0" fill="none" id="openString0" r="4" stroke="black" stroke-width="1" style="visibility: visible;"/>
          <circle cx="20" fill="none" id="openString1" r="4" stroke="black" stroke-width="1" style="visibility: hidden;"/>
          <circle cx="40" fill="none" id="openString2" r="4" stroke="black" stroke-width="1" style="visibility: visible;"/>
          <circle cx="60" fill="none" id="openString3" r="4" stroke="black" stroke-width="1" style="visibility: visible;"/>
        </g>
        <g id="subText" transform="translate(1,98)">
          <text id="subText0" text-anchor="middle" x="0"/>
          <text id="subText1" text-anchor="middle" x="20"/>
          <text id="subText2" text-anchor="middle" x="40"/>
          <text id="subText3" text-anchor="middle" x="60">R</text>
        </g>
      </g>
        </g></svg>